<svg xmlns="http://www.w3.org/2000/svg" width="15" height="21.333" viewBox="0 0 15 21.333">
  <g id="tattoo-machine" transform="translate(-9.5 0)">
    <path id="Path_18670" data-name="Path 18670" d="M36.833,8.667a.333.333,0,1,1,0-.667.667.667,0,0,0,0-1.333.333.333,0,1,1,0-.667,1.333,1.333,0,0,1,0,2.667Z" transform="translate(-18 -4)" fill="#fff"/>
    <path id="Path_18671" data-name="Path 18671" d="M21.833,11a.333.333,0,0,1-.333-.333A4.672,4.672,0,0,1,26.167,6a.333.333,0,1,1,0,.667,4,4,0,0,0-4,4A.333.333,0,0,1,21.833,11Z" transform="translate(-8 -4)" fill="#fff"/>
    <path id="Path_18672" data-name="Path 18672" d="M27.833,15a.333.333,0,0,1-.333-.333A2.67,2.67,0,0,1,30.167,12a.333.333,0,0,1,0,.667,2,2,0,0,0-2,2A.333.333,0,0,1,27.833,15Z" transform="translate(-12 -8)" fill="#fff"/>
    <path id="Path_18673" data-name="Path 18673" d="M36.85,9.667a.333.333,0,0,1,0-.667h0a.333.333,0,1,1,0,.667Z" transform="translate(-18.01 -6)" fill="#fff"/>
    <path id="Path_18674" data-name="Path 18674" d="M35.5,6.667h-.667a.333.333,0,1,1,0-.667H35.5a.333.333,0,0,1,0,.667Z" transform="translate(-16.667 -4)" fill="#fff"/>
    <path id="Path_18675" data-name="Path 18675" d="M35.5,12.667h-.667a.333.333,0,1,1,0-.667H35.5a.333.333,0,0,1,0,.667Z" transform="translate(-16.667 -8)" fill="#fff"/>
    <path id="Path_18676" data-name="Path 18676" d="M18.833,20.667a.333.333,0,0,1,0-.667.667.667,0,0,0,.667-.667.333.333,0,1,1,.667,0A1.335,1.335,0,0,1,18.833,20.667Z" transform="translate(-6 -12.667)" fill="#fff"/>
    <path id="Path_18677" data-name="Path 18677" d="M17.5,21.333a1,1,0,0,1-1-1,.333.333,0,0,1,.667,0,.334.334,0,0,0,.333.333.333.333,0,0,1,0,.667Z" transform="translate(-4.667 -13.333)" fill="#fff"/>
    <path id="Path_18678" data-name="Path 18678" d="M12.5,15.667H9.833a.333.333,0,1,1,0-.667H12.5a.333.333,0,1,1,0,.667Z" transform="translate(0 -10)" fill="#fff"/>
    <path id="Path_18679" data-name="Path 18679" d="M16.833,17.333A.333.333,0,0,1,16.5,17V15.333a.333.333,0,0,1,.667,0V17a.333.333,0,0,1-.333.333Z" transform="translate(-4.667 -10)" fill="#fff"/>
    <path id="Path_18680" data-name="Path 18680" d="M13.167,13.667H11.833a.333.333,0,0,1-.333-.333v-1A.333.333,0,0,1,11.833,12h1.333a.333.333,0,0,1,.333.333v1A.333.333,0,0,1,13.167,13.667Zm-1-.667h.667v-.333h-.667Z" transform="translate(-1.333 -8)" fill="#fff"/>
    <path id="Path_18681" data-name="Path 18681" d="M16.766,32.521c-1.215,0-2.47,0-3.308-1.217a.333.333,0,1,1,.549-.378c.608.883,1.445.928,2.759.928a.333.333,0,1,1,0,.667Z" transform="translate(-2.599 -20.521)" fill="#fff"/>
    <path id="Path_18682" data-name="Path 18682" d="M11.192,23.742a.334.334,0,0,1-.313-.219,6.37,6.37,0,0,1-.379-2.189.333.333,0,1,1,.667,0,5.7,5.7,0,0,0,.339,1.961.334.334,0,0,1-.313.448Z" transform="translate(-0.667 -14)" fill="#fff"/>
    <path id="Path_18683" data-name="Path 18683" d="M10.833,17.667a.333.333,0,0,1-.333-.333v-2a.333.333,0,0,1,.667,0v2a.333.333,0,0,1-.333.333Z" transform="translate(-0.667 -10)" fill="#fff"/>
    <path id="Path_18684" data-name="Path 18684" d="M11.5,29a1,1,0,1,1,1-1A1,1,0,0,1,11.5,29Zm0-1.333a.333.333,0,1,0,.333.333A.333.333,0,0,0,11.5,27.667Z" transform="translate(-0.667 -18)" fill="#fff"/>
    <path id="Path_18685" data-name="Path 18685" d="M27.833,24.667a.333.333,0,0,1-.333-.333v-5a.333.333,0,0,1,.667,0v5a.333.333,0,0,1-.333.333Z" transform="translate(-12 -12.667)" fill="#fff"/>
    <path id="Path_18686" data-name="Path 18686" d="M24.5,34.667H22.833a.333.333,0,1,1,0-.667H24.5a.333.333,0,1,1,0,.667Z" transform="translate(-8.667 -22.667)" fill="#fff"/>
    <path id="Path_18687" data-name="Path 18687" d="M35.5,2.667a.333.333,0,0,1-.316-.228l-.667-2a.333.333,0,0,1,.632-.211l.667,2a.334.334,0,0,1-.316.439Z" transform="translate(-16.667)" fill="#fff"/>
    <path id="Path_18688" data-name="Path 18688" d="M30.5,34.667H27.833a.333.333,0,1,1,0-.667H30.5a.333.333,0,0,1,0,.667Z" transform="translate(-12 -22.667)" fill="#fff"/>
    <path id="Path_18689" data-name="Path 18689" d="M33.833,31.667h-6a.333.333,0,0,1,0-.667h6a.333.333,0,0,1,0,.667Z" transform="translate(-12 -20.667)" fill="#fff"/>
    <path id="Path_18690" data-name="Path 18690" d="M35.833,35a.333.333,0,0,1-.333-.333v-.333a.333.333,0,0,1,.667,0v.333a.333.333,0,0,1-.333.333Z" transform="translate(-17.333 -22.667)" fill="#fff"/>
    <path id="Path_18691" data-name="Path 18691" d="M39.167,35.667H35.833a.333.333,0,1,1,0-.667h3.333a.333.333,0,0,1,0,.667Z" transform="translate(-17.333 -23.333)" fill="#fff"/>
    <path id="Path_18692" data-name="Path 18692" d="M44.5,33a1,1,0,1,1,1-1A1,1,0,0,1,44.5,33Zm0-1.333a.333.333,0,1,0,.333.333.333.333,0,0,0-.333-.333Z" transform="translate(-22.667 -20.667)" fill="#fff"/>
    <path id="Path_18693" data-name="Path 18693" d="M49.5,33.667H47.833a.333.333,0,1,1,0-.667H49.5a.333.333,0,0,1,0,.667Z" transform="translate(-25.333 -22)" fill="#fff"/>
    <path id="Path_18694" data-name="Path 18694" d="M18.551,17.667H16.833a.333.333,0,0,1,0-.667h1.717a.333.333,0,0,1,0,.667Z" transform="translate(-4.667 -11.333)" fill="#fff"/>
    <path id="Path_18695" data-name="Path 18695" d="M31.833,17.667h-4a.333.333,0,1,1,0-.667H31.5v-.333H28.057a.333.333,0,1,1,0-.667h3.776a.333.333,0,0,1,.333.333v1A.333.333,0,0,1,31.833,17.667Z" transform="translate(-12 -10.667)" fill="#fff"/>
    <path id="Path_18696" data-name="Path 18696" d="M41.167,18.167H39.833a.333.333,0,1,1,0-.667h1.333a.333.333,0,0,1,0,.667Z" transform="translate(-20 -11.667)" fill="#fff"/>
    <path id="Path_18697" data-name="Path 18697" d="M30.833,23.667a.333.333,0,0,1-.333-.333v-4a.333.333,0,0,1,.667,0v4a.333.333,0,0,1-.333.333Z" transform="translate(-14 -12.667)" fill="#fff"/>
    <path id="Path_18698" data-name="Path 18698" d="M37.833,23.667a.333.333,0,0,1-.333-.333v-4a.333.333,0,1,1,.667,0v4A.333.333,0,0,1,37.833,23.667Z" transform="translate(-18.667 -12.667)" fill="#fff"/>
    <path id="Path_18699" data-name="Path 18699" d="M33.167,22.667H30.833a.333.333,0,1,1,0-.667h2.333a.333.333,0,1,1,0,.667Z" transform="translate(-14 -14.667)" fill="#fff"/>
    <path id="Path_18700" data-name="Path 18700" d="M33.167,25.667H30.833a.333.333,0,1,1,0-.667h2.333a.333.333,0,1,1,0,.667Z" transform="translate(-14 -16.667)" fill="#fff"/>
    <path id="Path_18701" data-name="Path 18701" d="M33.167,28.667H30.833a.333.333,0,1,1,0-.667h2.333a.333.333,0,1,1,0,.667Z" transform="translate(-14 -18.667)" fill="#fff"/>
    <path id="Path_18702" data-name="Path 18702" d="M39.833,41.333h-3A.333.333,0,0,1,36.5,41V35.333A.333.333,0,0,1,36.833,35h3a.333.333,0,0,1,.333.333V41a.333.333,0,0,1-.333.333Zm-2.667-.667H39.5v-5H37.167Z" transform="translate(-18 -23.333)" fill="#fff"/>
    <path id="Path_18703" data-name="Path 18703" d="M51.833,33a.333.333,0,0,1-.333-.333V31.333a.333.333,0,1,1,.667,0v1.333a.333.333,0,0,1-.333.333Z" transform="translate(-28 -20.667)" fill="#fff"/>
    <path id="Path_18704" data-name="Path 18704" d="M40.333,56a.334.334,0,0,1-.312-.216l-.5-1.333a.335.335,0,0,1-.021-.117v-2A.333.333,0,0,1,39.833,52h1a.333.333,0,0,1,.333.333v2a.334.334,0,0,1-.021.117l-.5,1.333A.334.334,0,0,1,40.333,56Zm-.167-1.727.167.445.167-.445V52.667h-.333Z" transform="translate(-20 -34.667)" fill="#fff"/>
  </g>
</svg>
