<svg xmlns="http://www.w3.org/2000/svg" width="16.889" height="14.015" viewBox="0 0 16.889 14.015">
  <g id="Icon_feather-users" data-name="Icon feather-users" transform="translate(-1 -3.985)">
    <path id="Path_18660" data-name="Path 18660" d="M13.056,26.833V25.389A2.889,2.889,0,0,0,10.167,22.5H4.389A2.889,2.889,0,0,0,1.5,25.389v1.444" transform="translate(0 -9.333)" fill="none" stroke="#fff" stroke-linecap="round" stroke-linejoin="round" stroke-width="1"/>
    <path id="Path_18661" data-name="Path 18661" d="M13.278,7.389A2.889,2.889,0,1,1,10.389,4.5,2.889,2.889,0,0,1,13.278,7.389Z" transform="translate(-3.111)" fill="none" stroke="#fff" stroke-linecap="round" stroke-linejoin="round" stroke-width="1"/>
    <path id="Path_18662" data-name="Path 18662" d="M32.167,26.934V25.49A2.889,2.889,0,0,0,30,22.7" transform="translate(-14.778 -9.434)" fill="none" stroke="#fff" stroke-linecap="round" stroke-linejoin="round" stroke-width="1"/>
    <path id="Path_18663" data-name="Path 18663" d="M24,4.7a2.889,2.889,0,0,1,0,5.6" transform="translate(-11.667 -0.101)" fill="none" stroke="#fff" stroke-linecap="round" stroke-linejoin="round" stroke-width="1"/>
  </g>
</svg>
